<svg width="1422" height="424" viewBox="0 0 1422 424" fill="none" xmlns="http://www.w3.org/2000/svg">
<g clip-path="url(#clip0_201_25)">
<path d="M211.97 417.87C325.685 417.87 417.87 325.685 417.87 211.97C417.87 98.2546 325.685 6.07001 211.97 6.07001C98.2546 6.07001 6.07001 98.2546 6.07001 211.97C6.07001 325.685 98.2546 417.87 211.97 417.87Z" fill="#EDE2D3"/>
<path d="M545.99 164.37C545.65 155.86 545.28 147.18 544.88 138.33C546.62 138.6 548.31 138.83 549.92 139.03C551.53 139.23 553.14 139.33 554.76 139.33C556.38 139.33 557.98 139.23 559.6 139.03C561.21 138.83 562.89 138.6 564.64 138.33C564.24 147.18 563.87 155.86 563.53 164.37C563.19 172.88 563.03 181.56 563.03 190.41V224.99C563.03 233.84 563.2 242.55 563.53 251.13C563.86 259.71 564.24 268.15 564.64 276.46C561.55 276.19 558.26 276.06 554.77 276.06C551.28 276.06 547.99 276.19 544.9 276.46C545.3 268.15 545.67 259.71 546.01 251.13C546.34 242.55 546.51 233.84 546.51 224.99V190.41C546.51 181.56 546.34 172.89 546.01 164.37H545.99Z" fill="#262626"/>
<path d="M593.34 167.89C593.27 162.53 593.17 157.23 593.04 152.01C592.9 146.78 592.74 141.79 592.54 137.03C592.34 132.27 592.1 128.22 591.83 124.87C595.59 125.54 598.61 125.88 600.9 125.88C603.19 125.88 606.2 125.55 609.97 124.87C609.7 128.22 609.47 132.28 609.26 137.03C609.06 141.79 608.89 146.78 608.76 152.01C608.62 157.24 608.52 162.53 608.46 167.89C608.39 173.25 608.36 178.21 608.36 182.77V219.36C608.36 221.91 609.17 223.18 610.78 223.18C611.85 223.18 613.03 222.71 614.31 221.77C615.59 220.83 617.03 219.76 618.64 218.55C619.85 217.61 621.9 215.8 624.79 213.12C627.68 210.44 630.9 207.32 634.46 203.77C638.02 200.22 641.68 196.43 645.44 192.41C649.2 188.39 652.62 184.57 655.72 180.95C658.41 181.62 660.96 181.96 663.38 181.96C664.86 181.96 666.33 181.86 667.81 181.66C669.29 181.46 671.17 181.23 673.45 180.96C664.99 187.8 656.89 194.53 649.17 201.17C641.44 207.8 634.09 214.54 627.11 221.38C634.77 230.63 642.66 239.88 650.79 249.12C658.92 258.37 667.21 267.48 675.67 276.46C673.38 276.19 671.34 276.06 669.52 276.06H659.34C657.59 276.06 655.78 276.19 653.9 276.46C650.94 273.11 647.58 269.19 643.83 264.7C640.07 260.21 636.34 255.75 632.65 251.33C628.95 246.91 625.43 242.75 622.07 238.87C618.71 234.98 615.82 231.77 613.41 229.22C613.01 228.69 612.53 228.21 612 227.81C611.46 227.41 610.92 227.21 610.39 227.21C609.05 227.21 608.38 228.01 608.38 229.62V241.68C608.38 247.71 608.48 253.58 608.68 259.27C608.88 264.97 609.32 270.7 609.99 276.46C606.9 276.19 603.88 276.06 600.92 276.06C597.96 276.06 594.94 276.19 591.85 276.46C592.12 273.38 592.35 269.49 592.56 264.8C592.76 260.11 592.93 255.15 593.06 249.92C593.19 244.69 593.29 239.4 593.36 234.04C593.43 228.68 593.46 223.72 593.46 219.16V182.77C593.46 178.21 593.43 173.25 593.36 167.89H593.34Z" fill="#262626"/>
<path d="M688.75 145.97C688.75 143.16 689.76 140.74 691.77 138.73C693.79 136.72 696.2 135.71 699.02 135.71C701.84 135.71 704.26 136.72 706.27 138.73C708.29 140.74 709.29 143.15 709.29 145.97C709.29 148.79 708.28 151.2 706.27 153.21C704.26 155.22 701.84 156.23 699.02 156.23C696.2 156.23 693.78 155.22 691.77 153.21C689.76 151.2 688.75 148.79 688.75 145.97ZM691.57 218.55C691.57 212.52 691.47 206.19 691.27 199.55C691.07 192.92 690.63 186.72 689.96 180.95C693.72 181.62 696.74 181.96 699.03 181.96C701.32 181.96 704.33 181.63 708.1 180.95C707.43 186.71 706.99 192.91 706.79 199.55C706.59 206.18 706.49 212.52 706.49 218.55V239.46C706.49 245.49 706.59 251.82 706.79 258.46C706.99 265.09 707.43 271.09 708.1 276.45C705.01 276.18 701.99 276.05 699.03 276.05C696.07 276.05 693.05 276.18 689.96 276.45C690.63 271.09 691.07 265.09 691.27 258.46C691.47 251.83 691.57 245.49 691.57 239.46V218.55V218.55Z" fill="#262626"/>
<path d="M778.31 195.23C776.36 194.56 774.38 194.22 772.37 194.22C769.15 194.22 766.26 194.96 763.71 196.43C761.16 197.91 759.01 199.88 757.26 202.36C755.51 204.84 754.17 207.79 753.23 211.21C752.29 214.63 751.82 218.28 751.82 222.17V244.29C751.82 253.27 751.85 260.14 751.92 264.9C751.99 269.66 752.22 273.51 752.63 276.46C749.94 276.19 747.26 276.06 744.57 276.06C741.61 276.06 738.79 276.19 736.11 276.46C736.51 271.9 736.75 265.7 736.82 257.86C736.89 250.02 736.92 240.4 736.92 229.01V222.58C736.92 217.35 736.89 211.32 736.82 204.49C736.75 197.65 736.52 189.81 736.11 180.97C737.59 181.24 739 181.47 740.34 181.67C741.68 181.87 743.09 181.97 744.57 181.97C745.78 181.97 747.05 181.87 748.4 181.67C749.74 181.47 751.15 181.24 752.63 180.97C752.09 185.79 751.79 189.61 751.72 192.43C751.65 195.24 751.62 197.93 751.62 200.47L752.02 200.67C759.94 186.19 768.81 178.96 778.62 178.96C779.83 178.96 780.87 179.03 781.74 179.16C782.61 179.3 783.72 179.63 785.06 180.17C784.39 181.78 783.98 184.23 783.85 187.51C783.71 190.8 783.65 193.78 783.65 196.46L782.24 197.47C781.57 196.67 780.26 195.93 778.31 195.26V195.23Z" fill="#262626"/>
<path d="M796.95 246.09C796.95 238.99 797.05 232.92 797.25 227.9C797.45 222.88 797.55 217.88 797.55 212.92C797.55 208.23 797.52 203.14 797.45 197.64C797.38 192.15 797.28 186.58 797.15 180.95C800.51 181.62 803.33 181.96 805.61 181.96C807.76 181.96 810.51 181.63 813.87 180.95C813.2 188.99 812.69 197.81 812.36 207.39C812.02 216.97 811.86 226.79 811.86 236.84C811.86 243.81 812.46 249.14 813.67 252.82C814.88 256.51 816.36 259.29 818.1 261.16C819.98 263.31 822.36 265.08 825.25 266.49C828.14 267.9 831.53 268.6 835.43 268.6C841.07 268.6 845.77 267.36 849.53 264.88C853.29 262.4 856.04 259.35 857.79 255.73C858.73 253.45 859.47 251.51 860.01 249.9C860.55 248.29 860.98 246.15 861.32 243.47C861.65 240.79 861.86 237.17 861.92 232.61C861.99 228.05 862.02 221.82 862.02 213.91V197.02C862.02 194.07 861.99 191.26 861.92 188.58C861.85 185.9 861.75 183.35 861.62 180.94C863.1 181.21 864.51 181.44 865.85 181.64C867.19 181.84 868.6 181.94 870.08 181.94C871.56 181.94 872.97 181.84 874.31 181.64C875.65 181.44 877 181.21 878.34 180.94C877.67 191.39 877.26 201.48 877.13 211.2C876.99 220.92 876.93 231.2 876.93 242.06C876.93 248.09 877 253.99 877.13 259.75C877.26 265.51 877.46 271.08 877.73 276.44C875.04 276.17 872.42 276.04 869.87 276.04C867.32 276.04 864.7 276.17 862.01 276.44C862.14 275.23 862.24 273.96 862.31 272.62C862.38 271.28 862.41 269.87 862.41 268.4V259.75H862.01C858.52 266.18 854.02 270.91 848.51 273.92C843 276.94 837.03 278.44 830.58 278.44C820.1 278.44 811.87 275.66 805.9 270.1C799.92 264.54 796.93 256.53 796.93 246.07L796.95 246.09Z" fill="#262626"/>
<path d="M945.2 164.37C944.86 155.86 944.49 147.18 944.09 138.33C945.83 138.6 947.52 138.83 949.13 139.03C950.74 139.23 952.35 139.33 953.97 139.33C955.59 139.33 957.19 139.23 958.81 139.03C960.42 138.83 962.1 138.6 963.85 138.33C963.45 147.18 963.08 155.86 962.74 164.37C962.4 172.88 962.24 181.56 962.24 190.41C962.24 207.3 962.31 221.94 962.44 234.34C962.57 246.74 962.71 257.83 962.84 267.61C972.38 267.61 981.51 267.51 990.24 267.31C998.97 267.11 1008.37 266.34 1018.45 265C1017.78 267.41 1017.44 269.42 1017.44 271.03C1017.44 272.51 1017.77 274.32 1018.45 276.46C1012.27 276.19 1006.09 276.06 999.91 276.06H962.73C956.75 276.06 950.54 276.19 944.09 276.46C944.49 268.15 944.86 259.71 945.2 251.13C945.53 242.55 945.7 233.84 945.7 224.99V190.41C945.7 181.56 945.53 172.89 945.2 164.37V164.37Z" fill="#262626"/>
<path d="M1027.51 229C1027.51 219.89 1028.95 212.15 1031.84 205.78C1034.73 199.42 1038.52 194.25 1043.22 190.3C1047.92 186.35 1053.19 183.46 1059.04 181.65C1064.88 179.84 1070.69 178.94 1076.47 178.94C1082.25 178.94 1088.22 179.84 1094 181.65C1099.77 183.46 1105.01 186.34 1109.72 190.3C1114.42 194.25 1118.21 199.42 1121.1 205.78C1123.99 212.15 1125.43 219.89 1125.43 229C1125.43 238.11 1123.98 245.86 1121.1 252.22C1118.21 258.59 1114.42 263.75 1109.72 267.7C1105.02 271.66 1099.78 274.44 1094 276.04C1088.22 277.65 1082.38 278.45 1076.47 278.45C1070.56 278.45 1064.88 277.65 1059.04 276.04C1053.2 274.43 1047.92 271.65 1043.22 267.7C1038.52 263.75 1034.72 258.59 1031.84 252.22C1028.95 245.86 1027.51 238.12 1027.51 229ZM1045.24 229C1045.24 234.63 1045.74 240.06 1046.75 245.28C1047.76 250.51 1049.47 255.17 1051.89 259.25C1054.31 263.34 1057.53 266.59 1061.56 269C1065.59 271.41 1070.56 272.62 1076.47 272.62C1082.38 272.62 1087.35 271.41 1091.38 269C1095.41 266.59 1098.63 263.34 1101.05 259.25C1103.47 255.16 1105.18 250.5 1106.19 245.28C1107.2 240.05 1107.7 234.62 1107.7 229C1107.7 223.38 1107.2 217.94 1106.19 212.72C1105.18 207.49 1103.47 202.84 1101.05 198.75C1098.63 194.66 1095.41 191.41 1091.38 189C1087.35 186.59 1082.38 185.38 1076.47 185.38C1070.56 185.38 1065.59 186.59 1061.56 189C1057.53 191.41 1054.31 194.66 1051.89 198.75C1049.47 202.84 1047.76 207.5 1046.75 212.72C1045.74 217.95 1045.24 223.38 1045.24 229Z" fill="#262626"/>
<path d="M1209.66 257.35C1208.58 259.5 1207.14 261.81 1205.33 264.29C1203.52 266.77 1201.23 269.08 1198.48 271.23C1195.73 273.38 1192.47 275.12 1188.71 276.46C1184.95 277.8 1180.58 278.47 1175.61 278.47C1170.64 278.47 1165.5 277.6 1160.6 275.86C1155.69 274.12 1151.33 271.27 1147.5 267.31C1143.67 263.36 1140.58 258.26 1138.23 252.03C1135.88 245.8 1134.7 238.33 1134.7 229.61C1134.7 220.89 1135.98 213.6 1138.53 207.29C1141.08 200.99 1144.4 195.73 1148.5 191.51C1152.6 187.29 1157.23 184.14 1162.4 182.06C1167.57 179.98 1172.78 178.94 1178.02 178.94C1192.93 178.94 1203.27 185.64 1209.05 199.04H1209.45V179.34C1209.45 174.25 1209.42 169.12 1209.35 163.96C1209.28 158.8 1209.21 153.88 1209.15 149.18C1209.08 144.49 1209.01 140.07 1208.95 135.91C1208.88 131.76 1208.78 128.07 1208.65 124.85C1210.26 125.12 1211.8 125.35 1213.28 125.55C1214.76 125.75 1216.23 125.85 1217.71 125.85C1219.19 125.85 1220.63 125.75 1222.04 125.55C1223.45 125.35 1225.03 125.12 1226.78 124.85C1226.38 129.14 1226.04 135.34 1225.77 143.45C1225.5 151.56 1225.27 160.51 1225.06 170.29C1224.86 180.08 1224.69 190.13 1224.56 200.45C1224.42 210.77 1224.36 220.22 1224.36 228.8C1224.36 238.05 1224.43 246.36 1224.56 253.73C1224.69 261.1 1224.83 268.68 1224.96 276.45C1222.27 276.18 1219.65 276.05 1217.1 276.05C1214.68 276.05 1212.13 276.18 1209.44 276.45L1210.04 257.35H1209.64H1209.66ZM1152.44 230.81C1152.44 238.85 1153.28 245.49 1154.96 250.71C1156.64 255.94 1158.79 260.13 1161.41 263.28C1164.03 266.43 1167.02 268.61 1170.38 269.81C1173.74 271.02 1177.03 271.62 1180.25 271.62C1185.49 271.62 1189.99 270.31 1193.75 267.7C1197.51 265.09 1200.63 261.67 1203.12 257.45C1205.6 253.23 1207.42 248.44 1208.56 243.08C1209.7 237.72 1210.27 232.36 1210.27 227C1210.27 214.13 1207.78 204.32 1202.81 197.55C1197.84 190.78 1190.52 187.4 1180.85 187.4C1176.01 187.4 1171.81 188.51 1168.26 190.72C1164.7 192.93 1161.74 196.02 1159.39 199.97C1157.04 203.92 1155.29 208.55 1154.15 213.84C1153.01 219.14 1152.44 224.8 1152.44 230.83V230.81Z" fill="#262626"/>
<path d="M1242.1 211.71C1242.1 206.08 1243.11 201.22 1245.12 197.13C1247.14 193.04 1249.92 189.66 1253.48 186.98C1257.04 184.3 1261.14 182.29 1265.77 180.95C1270.4 179.61 1275.34 178.94 1280.58 178.94C1283.13 178.94 1285.58 179.01 1287.93 179.14C1290.28 179.28 1293.27 179.48 1296.9 179.74C1299.99 180.01 1302.74 180.21 1305.16 180.34C1307.58 180.48 1309.52 180.54 1311 180.54C1318.52 180.54 1323.96 180.21 1327.32 179.53C1327.18 180.2 1327.08 180.91 1327.02 181.64C1326.95 182.38 1326.92 183.08 1326.92 183.75C1326.92 184.42 1326.95 185.13 1327.02 185.86C1327.09 186.6 1327.19 187.3 1327.32 187.97C1323.42 187.7 1319.63 187.4 1315.94 187.07C1312.24 186.74 1308.59 186.5 1304.96 186.37L1304.56 186.77C1308.72 189.05 1312.08 192.57 1314.63 197.32C1317.18 202.08 1318.46 207 1318.46 212.1C1318.46 222.15 1315.07 230.03 1308.28 235.72C1301.5 241.42 1292.39 244.26 1280.98 244.26C1279.1 244.26 1277.25 244.19 1275.44 244.06C1273.63 243.93 1271.78 243.86 1269.9 243.86C1267.48 243.86 1265.23 244.73 1263.15 246.47C1261.07 248.21 1260.03 250.43 1260.03 253.1C1260.03 256.59 1260.87 259.13 1262.55 260.74C1264.23 262.35 1267.35 263.22 1271.92 263.35C1275.68 263.48 1279.38 263.59 1283 263.65C1286.63 263.72 1290.32 263.82 1294.08 263.95C1300.26 264.09 1305.53 264.82 1309.9 266.16C1314.26 267.5 1317.82 269.31 1320.58 271.59C1323.33 273.87 1325.35 276.48 1326.62 279.43C1327.9 282.38 1328.53 285.59 1328.53 289.08C1328.53 293.77 1327.62 298.53 1325.81 303.35C1324 308.17 1321.18 312.53 1317.35 316.42C1313.52 320.31 1308.59 323.52 1302.54 326.07C1296.5 328.61 1289.24 329.89 1280.78 329.89C1267.75 329.89 1257.47 327.31 1249.95 322.15C1242.43 316.99 1238.67 309.92 1238.67 300.94C1238.67 297.45 1239.31 294.24 1240.58 291.29C1241.85 288.34 1243.5 285.73 1245.52 283.45C1247.54 281.17 1249.82 279.36 1252.37 278.02C1254.92 276.68 1257.54 275.68 1260.23 275V274.6C1256.06 273.39 1252.91 271.38 1250.76 268.57C1248.61 265.76 1247.54 262.41 1247.54 258.52C1247.54 256.24 1247.97 254.17 1248.85 252.29C1249.72 250.41 1250.83 248.74 1252.17 247.26C1253.51 245.79 1255.06 244.58 1256.8 243.64C1258.54 242.7 1260.23 242.1 1261.84 241.83V241.43C1255.66 238.75 1250.82 234.96 1247.33 230.07C1243.84 225.18 1242.09 219.05 1242.09 211.67L1242.1 211.71ZM1313.63 297.76C1313.63 289.72 1311.28 284.09 1306.58 280.87C1301.88 277.65 1294.09 276.04 1283.21 276.04C1273.14 276.04 1265.34 277.68 1259.84 280.97C1254.33 284.25 1251.58 290.18 1251.58 298.76C1251.58 303.31 1252.35 307.2 1253.9 310.42C1255.44 313.64 1257.53 316.25 1260.15 318.26C1262.77 320.27 1265.89 321.74 1269.52 322.68C1273.15 323.62 1277.04 324.09 1281.21 324.09C1285.38 324.09 1289.2 323.55 1293.1 322.48C1296.99 321.41 1300.45 319.8 1303.48 317.65C1306.5 315.5 1308.95 312.79 1310.83 309.51C1312.71 306.22 1313.65 302.3 1313.65 297.75L1313.63 297.76ZM1302.75 210.71C1302.75 202.27 1300.73 195.83 1296.71 191.41C1292.68 186.99 1287.37 184.78 1280.79 184.78C1273.54 184.78 1267.89 187.23 1263.86 192.12C1259.83 197.01 1257.82 203.55 1257.82 211.72C1257.82 219.89 1259.67 226.83 1263.36 231.72C1267.05 236.61 1272.8 239.06 1280.59 239.06C1284.48 239.06 1287.81 238.29 1290.56 236.75C1293.31 235.21 1295.6 233.13 1297.41 230.52C1299.22 227.91 1300.56 224.89 1301.44 221.47C1302.31 218.05 1302.75 214.47 1302.75 210.71V210.71Z" fill="#262626"/>
<path d="M1333.58 231.82C1333.58 215.33 1337.51 202.4 1345.37 193.02C1353.23 183.64 1364.68 178.95 1379.72 178.95C1386.84 178.95 1392.98 180.06 1398.16 182.27C1403.33 184.48 1407.66 187.43 1411.16 191.12C1414.65 194.81 1417.24 199.13 1418.92 204.09C1420.6 209.05 1421.44 214.34 1421.44 219.97C1421.44 221.31 1421.41 222.62 1421.34 223.89C1421.27 225.17 1421.17 226.47 1421.04 227.81C1413.79 227.68 1406.6 227.54 1399.48 227.41C1392.36 227.28 1385.17 227.21 1377.92 227.21C1373.49 227.21 1369.09 227.28 1364.72 227.41C1360.35 227.55 1355.96 227.68 1351.52 227.81C1351.38 228.48 1351.32 229.49 1351.32 230.83V233.44C1351.32 238.67 1352.09 243.56 1353.64 248.12C1355.18 252.68 1357.43 256.6 1360.39 259.88C1363.34 263.17 1366.97 265.78 1371.27 267.72C1375.57 269.66 1380.54 270.64 1386.18 270.64C1388.87 270.64 1391.62 270.27 1394.44 269.53C1397.26 268.79 1400.01 267.79 1402.7 266.51C1405.39 265.24 1407.9 263.73 1410.26 261.99C1412.61 260.25 1414.66 258.37 1416.41 256.36L1417.42 256.96L1416.21 266.81C1412.18 270.03 1407.17 272.78 1401.2 275.05C1395.22 277.33 1389.01 278.47 1382.56 278.47C1375.31 278.47 1368.69 277.36 1362.71 275.15C1356.73 272.94 1351.56 269.72 1347.2 265.5C1342.83 261.28 1339.47 256.29 1337.13 250.52C1334.78 244.76 1333.6 238.53 1333.6 231.82H1333.58ZM1380.12 185.38C1375.15 185.38 1370.95 186.52 1367.53 188.8C1364.1 191.08 1361.28 193.93 1359.07 197.34C1356.85 200.76 1355.17 204.51 1354.03 208.6C1352.89 212.69 1352.18 216.54 1351.91 220.16C1356.07 220.29 1360.4 220.43 1364.91 220.56C1369.41 220.69 1373.81 220.76 1378.11 220.76C1382.41 220.76 1387.04 220.69 1391.61 220.56C1396.18 220.43 1400.61 220.29 1404.91 220.16C1404.91 216.54 1404.61 212.72 1404 208.7C1403.4 204.68 1402.19 200.93 1400.37 197.44C1398.56 193.96 1396.04 191.08 1392.81 188.79C1389.59 186.51 1385.35 185.37 1380.12 185.37V185.38Z" fill="#262626"/>
<path d="M211.97 423.94C95.09 423.94 0 328.85 0 211.97C0 95.09 95.09 0 211.97 0C328.85 0 423.94 95.09 423.94 211.97C423.94 328.85 328.85 423.94 211.97 423.94ZM211.97 11.17C101.25 11.17 11.17 101.25 11.17 211.97C11.17 322.69 101.25 412.77 211.97 412.77C322.69 412.77 412.77 322.69 412.77 211.97C412.77 101.25 322.69 11.17 211.97 11.17V11.17Z" fill="#262626"/>
<path d="M165.11 99.36C164.44 98.69 164.1 97.89 164.1 96.97C164.1 96.05 164.44 95.25 165.11 94.58C165.78 93.91 166.58 93.57 167.5 93.57H252.51C253.43 93.57 254.23 93.91 254.9 94.58C255.57 95.25 255.91 96.05 255.91 96.97C255.91 97.89 255.57 98.69 254.9 99.36C254.23 100.03 253.43 100.37 252.51 100.37H167.5C166.58 100.37 165.78 100.03 165.11 99.36ZM165.11 168.16C164.44 167.49 164.1 166.69 164.1 165.77C164.1 164.85 164.44 164.05 165.11 163.38C165.78 162.71 166.58 162.37 167.5 162.37H252.51C253.43 162.37 254.23 162.71 254.9 163.38C255.57 164.05 255.91 164.85 255.91 165.77C255.91 166.69 255.57 167.49 254.9 168.16C254.23 168.83 253.43 169.17 252.51 169.17H167.5C166.58 169.17 165.78 168.83 165.11 168.16ZM249.37 201.96H212.77C212.1 201.96 211.76 202.34 211.76 203.09V214.53C211.76 225.43 213.44 233.39 216.79 238.42C220.14 243.53 225.22 246.09 232.01 246.09C245.17 246.09 251.75 236.41 251.75 217.04C251.75 212.26 251.37 207.61 250.62 203.08C250.45 202.33 250.03 201.95 249.36 201.95L249.37 201.96ZM164.99 201.08C164.4 200.49 164.11 199.74 164.11 198.82C164.11 197.9 164.4 197.14 164.99 196.56C165.58 195.97 166.33 195.68 167.25 195.68H248.11C250.21 195.68 252.01 196.31 253.52 197.57C255.11 198.91 256.04 200.63 256.29 202.73C256.88 208.26 257.17 213.17 257.17 217.44C257.17 229.01 255.03 237.69 250.76 243.47C246.57 249.34 240.45 252.27 232.4 252.27C219.57 252.27 211.69 245.23 208.76 231.14C208.76 231.06 208.72 231.01 208.63 231.01C208.46 231.01 208.38 231.05 208.38 231.14C207.37 233.24 205.61 235.16 203.1 236.92C200.67 238.68 196.56 240.82 190.78 243.33L167.14 253.52C166.47 253.86 165.8 253.77 165.13 253.27C164.46 252.85 164.12 252.26 164.12 251.51C164.12 249.25 165.13 247.7 167.14 246.86L190.03 237.18C193.38 235.75 195.94 234.54 197.7 233.53C199.46 232.61 201.01 231.6 202.35 230.51C203.78 229.42 204.7 228.12 205.12 226.61C205.62 225.1 205.96 223.51 206.13 221.83C206.38 220.15 206.51 217.72 206.51 214.54V203.1C206.51 202.35 206.13 201.97 205.38 201.97H167.27C166.35 201.97 165.59 201.68 165.01 201.09L164.99 201.08ZM170.9 322.3C165.53 316.94 162.85 309.26 162.85 299.29C162.85 289.32 165.53 281.64 170.9 276.28C176.35 270.91 184.36 268.23 194.92 268.23H252.77C253.61 268.23 254.32 268.52 254.91 269.11C255.58 269.78 255.92 270.58 255.92 271.5C255.92 272.34 255.63 273.05 255.04 273.64C254.45 274.31 253.7 274.65 252.78 274.65H194.68C177.16 274.65 168.4 282.91 168.4 299.42C168.4 315.93 177.16 324.07 194.68 324.07H252.78C253.7 324.07 254.46 324.36 255.04 324.95C255.63 325.54 255.92 326.29 255.92 327.22C255.92 328.15 255.63 328.9 255.04 329.48C254.45 330.07 253.7 330.36 252.78 330.36H194.93C184.37 330.36 176.36 327.68 170.91 322.31L170.9 322.3Z" fill="#262626" stroke="#262626" stroke-width="2" stroke-miterlimit="10"/>
<path d="M308.33 173.36C307.75 173.36 307.17 173.24 306.61 172.99L195.89 122.98C195.67 122.9 195.02 122.97 194.79 123.12L132.04 172.46C130.22 173.89 127.59 173.57 126.16 171.76C124.73 169.94 125.04 167.31 126.86 165.88L189.62 116.52C192.44 114.32 196.68 113.93 199.79 115.57L310.05 165.35C312.16 166.3 313.1 168.78 312.14 170.89C311.44 172.44 309.91 173.36 308.32 173.36H308.33Z" fill="#262626"/>
</g>
<defs>
<clipPath id="clip0_201_25">
<rect width="1421.43" height="423.94" fill="white"/>
</clipPath>
</defs>
</svg>
